<?xml version="1.0" encoding="UTF-8" standalone="no"?><svg xmlns="http://www.w3.org/2000/svg" width="600" height="600"><path style="fill:#F00001" d="M588,588L12,588L12,12L588,12L588,588z"/><path d="M237.8,325.3C242.1,331.1 240.8,333.3 236.4,336.6L226.9,324.1C232.1,320.2 234.1,320.3 237.8,325.3M472,477.8C476.4,483.6 475,485.8 470.6,489.1L461.1,476.6C466.3,472.7 468.3,472.9 472,477.8M261.1,197.9C265.5,203.7 264.1,206 259.7,209.3L250.3,196.8C255.4,192.9 257.5,193.1 261.1,197.9M155.7,58C160.1,63.8 158.7,66 154.3,69.4L144.9,56.8C150,52.9 152,53.1 155.7,58M85.6,440C89.9,445.8 88.6,448 84.2,451.3L74.7,438.8C79.8,434.9 81.9,435 85.6,440M284.5,70.6C288.9,76.4 287.5,78.7 283.1,82L273.7,69.4C278.8,65.6 280.8,65.7 284.5,70.6M343.2,465.2C347.6,470.9 346.2,473.2 341.8,476.6L332.3,464C337.4,460.1 339.5,460.3 343.2,465.2M366.6,337.9C370.9,343.6 369.6,345.9 365.2,349.2L355.7,336.7C360.9,332.8 362.9,333 366.6,337.9M518.8,223.2C523.1,228.9 521.8,231.2 517.4,234.5L508,222C513.1,218.1 515.1,218.3 518.8,223.2M413.4,83.2C417.7,89 416.4,91.3 412,94.6L402.5,82C407.6,78.2 409.7,78.3 413.4,83.2M390,210.6C394.3,216.3 393,218.6 388.6,221.9L379.1,209.4C384.2,205.5 386.3,205.7 390,210.6M542.2,95.9C546.5,101.6 545.2,103.9 540.8,107.2L531.3,94.6C536.5,90.8 538.5,91 542.2,95.9M109,312.7C113.3,318.4 112,320.7 107.6,324L98.1,311.4C103.2,307.6 105.3,307.8 109,312.7M214.4,452.6C218.7,458.3 217.4,460.6 213,463.9L203.5,451.3C208.7,447.5 210.7,447.7 214.4,452.6M495.4,350.5C499.8,356.2 498.4,358.5 494,361.8L484.6,349.3C489.7,345.4 491.7,345.6 495.4,350.5M16,44.2L25.5,56.8C29.9,53.4 31.2,51.2 26.9,45.4C23.2,40.5 21.2,40.3 16,44.2M132.3,185.3C136.7,191.1 135.3,193.4 130.9,196.7L121.5,184.1C126.6,180.3 128.6,180.4 132.3,185.3M583.7,12L567.7,12L573.5,19.7L583.7,12z M290.8,13.3L289.7,12L268.3,12L277.1,23.6L290.8,13.3z M343.3,42.8C358.7,63.2 366.1,67.6 379.7,57.4C383.7,54.3 385.9,50.8 387,46.2L391,47.5L398,42.3L376.3,13.5L359.2,26.3L366.5,36L369.9,33.4L373.7,38.5C376.1,41.7 375.6,44 373.4,45.6C371.3,47.2 368.9,47 366.6,43.9L348.8,20.3C346.5,17.2 347,14.9 349.1,13.3C351.2,11.7 353.6,11.8 356,14.9L358.2,17.9L366.1,12L333.1,12C329.7,19.8 333,29.1 343.3,42.8M419.6,26L409,12L387.6,12L405.9,36.3L419.6,26z M472.2,55.4C487.5,75.8 494.9,80.2 508.5,70C512.6,66.9 514.8,63.4 515.8,58.8L519.8,60.1L526.8,54.8L505.1,26.1L488.1,38.9L495.3,48.6L498.7,46L502.6,51.1C504.9,54.3 504.4,56.6 502.3,58.2C500.1,59.8 497.8,59.7 495.4,56.5L477.6,32.9C475.3,29.8 475.8,27.5 478,25.9C480.1,24.3 482.5,24.4 484.8,27.5L487,30.5L500.7,20.2C497.6,16.1 495.4,13.6 493.1,12.2C492.9,12.1 492.8,12.1 492.6,12L475.2,12C473.4,12.9 471.6,13.9 469.9,15.2C456.7,25.1 457.4,35.9 472.2,55.4M548.4,38.6L528.4,12L507,12L534.7,48.9L548.4,38.6z M71.1,69.2L101.5,46.3L93.1,35.2L76.4,47.8L68.8,37.7L81.9,27.8L73.6,16.7L60.4,26.6L53.8,17.8L61.5,12L39.3,12L32.1,17.5L71.1,69.2z M199.9,81.8L230.3,58.9L221.9,47.8L205.2,60.4L197.6,50.3L210.7,40.4L202.4,29.3L189.2,39.2L182.6,30.4L198.5,18.4L193.7,12L184.8,12L160.9,30L199.9,81.8z M250.8,44.8C254.9,41.7 257.2,38.2 258.1,33.6L262.1,34.9L269.1,29.6L255.9,12L232.7,12L230.4,13.7L237.7,23.4L241.1,20.8L245,26C247.3,29 246.7,31.4 244.6,33C242.5,34.6 240.1,34.4 237.8,31.3L223.2,12L204,12C205.7,17.2 209.2,23.1 214.5,30.2C229.9,50.6 237.3,55 250.8,44.8M122,32.2C126.1,29.1 128.3,25.6 129.3,21L133.3,22.3L140.3,17L136.5,12L115.1,12L116.1,13.3C118.4,16.4 117.9,18.8 115.8,20.3C113.7,21.9 111.3,21.8 109,18.7L103.9,12L81.8,12C83,13.8 84.2,15.6 85.7,17.6C101.1,38 108.5,42.4 122,32.2M539.8,512.3L578.8,564.1L588,557.1L588,547.8L553.5,502L539.8,512.3z M504.1,569.8L490.9,579.7L484.3,570.9L500.2,558.9L492.2,548.2L462.6,570.5L475.8,588L503,588L512.5,580.9L504.1,569.8z M559.9,574.1L563.9,575.3L570.9,570.1L549.2,541.3L532.1,554.2L539.4,563.8L542.8,561.3L546.7,566.4C549,569.5 548.5,571.8 546.3,573.4C544.2,575 541.8,574.9 539.6,571.8L521.7,548.1C519.4,545 519.9,542.7 522,541.1C524.1,539.5 526.5,539.6 528.9,542.7L531.1,545.8L544.8,535.5C541.6,531.3 539.5,528.9 537.2,527.4C529.9,522.7 521.3,524.9 514,530.5C500.8,540.4 501.5,551.1 516.2,570.7C522.8,579.4 527.9,585 532.7,588L548.3,588C549.7,587.2 551.1,586.4 552.6,585.2C556.6,582.2 558.9,578.7 559.9,574.1M441.7,586.2L439.3,588L469.3,588C460.7,577.5 452.3,578.3 441.7,586.2M304.1,580.3L293.8,588L335.5,588C334.7,586.5 334.1,585.1 332.8,583.4C323.7,571.3 315.2,571.9 304.1,580.3M361.7,584.8L374.8,574.9L366.5,563.8L353.3,573.7L346.7,564.9L362.6,552.9L354.6,542.2L325,564.6L342.6,588L364.1,588L361.7,584.8z M204,570.8C194.9,558.7 186.3,559.3 175.3,567.7L159.9,579.2L166.5,588L187.1,588L180.1,578.7C185.3,574.8 187.3,575 191,579.9C193.9,583.7 194.1,585.9 192.7,588L208.7,588C210.5,583 209.2,577.7 204,570.8M257.2,569.7L240.4,582.3L232.9,572.2L246,562.3L237.7,551.2L224.5,561.1L217.9,552.3L233.8,540.3L225.7,529.6L196.1,551.9L223.3,588L256,588L265.6,580.8L257.2,569.7z M378.4,588L390.3,588L386,582.3L378.4,588z M578.6,483.1L588,495.6L588,476L578.6,483.1z M554.4,391.7L588,436.3L588,407.9L568.1,381.3L554.4,391.7z M570.1,306.2L577.4,315.9L580.8,313.3L584.6,318.4C587,321.5 586.4,323.8 584.3,325.4C582.2,327 579.8,326.9 577.5,323.8L559.7,300.1C557.3,297.1 557.9,294.7 560,293.1C562.1,291.5 564.5,291.6 566.8,294.8L569.1,297.8L582.8,287.5C579.6,283.3 577.4,280.9 575.1,279.4C567.9,274.7 559.3,276.9 552,282.5C538.8,292.4 539.5,303.1 554.2,322.7C568.6,341.7 576,346.7 588,338.9L588,294.5L587.1,293.4L570.1,306.2z M575.3,155.1C562.2,165.1 562.9,175.8 577.6,195.4C581.5,200.6 584.9,204.7 588,207.8L588,179.4L583.1,172.8C580.7,169.7 581.3,167.4 583.4,165.8C584.8,164.7 586.4,164.5 588,165.5L588,149.8C583.7,150.3 579.3,152.1 575.3,155.1M569.1,68.3L585,56.3L576.9,45.6L547.4,67.9L586.4,119.7L588,118.4L588,93.4L584,88.2L588,85.2L588,67.8L575.7,77.1L569.1,68.3z M588,277.9L588,256.6L577.8,264.3L588,277.9z M568.3,225.6L560.7,215.5L573.8,205.6L565.5,194.5L552.3,204.4L545.7,195.6L561.6,183.6L553.6,172.9L524,195.2L563,247L588,228.1L588,216.9L585,212.9L568.3,225.6z M51.3,566.1L60.8,578.6C65.2,575.3 66.5,573 62.2,567.3C58.5,562.4 56.4,562.2 51.3,566.1M12,197.2L12,223.4L24.6,213.9L12,197.2z M22.9,260.4L14.9,249.8L12,251.9L12,268.7L22.9,260.4z M16.5,163.6C15,161.6 13.5,160 12,158.7L12,191.7C24.2,182.4 25.5,175.5 16.5,163.6M22.9,417.1L12,425.4L12,442.8L31.3,428.2L22.9,417.1z M54.7,300.9L46.3,289.8L29.6,302.4L22,292.4L35.2,282.4L26.8,271.3L13.6,281.2L12,279.1L12,307.5L24.3,323.8L54.7,300.9z M51.9,414.1C55.9,411 58.1,407.6 59.2,403L63.2,404.3L70.2,398.9L48.5,370.2L31.4,383.1L38.7,392.7L42.1,390.2L46,395.3C48.3,398.4 47.7,400.7 45.6,402.3C43.5,403.9 41.1,403.8 38.8,400.7L21,377C18.7,373.9 19.2,371.6 21.3,370C23.4,368.4 25.8,368.6 28.1,371.6L30.4,374.6L44.1,364.4C40.9,360.2 38.7,357.8 36.5,356.3C29.2,351.6 20.6,353.8 13.3,359.3C12.8,359.7 12.5,360.1 12,360.4L12,394.5C13.1,396.2 14.2,397.8 15.5,399.5C30.9,420 38.3,424.4 51.9,414.1M78.1,173.6L69.7,162.5L53,175.1L45.4,165L58.5,155.1L50.2,144L37,153.9L30.4,145.1L46.3,133.1L38.3,122.5L12,142.3L12,149.2L47.7,196.5L78.1,173.6z M34.8,96.5L12,66.2L12,32.7C22.6,24.9 31.1,24.5 39.9,36.3C48.9,48.2 47.7,55.2 35.2,64.6L32.8,66.4L48,86.6L34.8,96.5z M20.7,491.7C17.5,487.5 15.4,485.1 13.1,483.6C12.7,483.4 12.3,483.4 12,483.2L12,498.2L20.7,491.7z M128.4,557.1L111.7,569.7L104,559.6L117.2,549.6L108.8,538.5L95.7,548.5L89,539.7L105,527.7L96.9,517L67.3,539.3L104,588L110.4,588L136.7,568.1L128.4,557.1z M70.4,586.5L68.4,588L47.2,588L31.1,566.6L46.5,555C57.5,546.7 66.1,546.1 75.2,558.2C84.2,570.1 82.9,577 70.4,586.5M28.5,541.4C32.6,538.4 34.8,534.9 35.8,530.3L39.8,531.5L46.8,526.3L25.1,497.5L12,507.4L12,515.7L15.3,520L18.7,517.5L22.6,522.6C24.9,525.7 24.4,528 22.3,529.6C20.1,531.2 17.8,531.1 15.4,528L12,523.4L12,545.9C17.1,547.7 22.1,546.2 28.5,541.4M578.4,454.7L585.5,449.4L563.8,420.7L546.7,433.5L554,443.2L557.4,440.6L561.2,445.7C563.6,448.8 563.1,451.1 560.9,452.7C558.8,454.3 556.4,454.2 554.1,451.1L536.3,427.5C533.9,424.4 534.5,422 536.6,420.4C538.7,418.9 541.1,419 543.4,422L545.7,425.1L559.4,414.8C556.2,410.6 554,408.2 551.8,406.7C544.5,402 535.8,404.3 528.6,409.8C515.4,419.7 516.1,430.5 530.8,450C546.2,470.4 553.6,474.8 567.1,464.5C571.2,461.5 573.4,458 574.4,453.4L578.4,454.7z M546.6,478.7L538.2,467.6L521.5,480.2L513.9,470.1L527.1,460.2L518.7,449.1L505.5,459L498.8,450.2L514.8,438.2L506.8,427.5L477.2,449.8L516.2,501.6L546.6,478.7z M493.1,519L477.9,498.8L480.2,497C492.8,487.6 494.1,480.6 485,468.7C476,456.7 467.3,457.3 456.3,465.6L440.9,477.1L479.9,528.9L493.1,519z M454.8,547.8L415.8,496L402.2,506.4L441.2,558.1L454.8,547.8z M433.2,564.1L411.6,535.3L394.5,548.2L401.8,557.9L405.2,555.3L409,560.4C411.4,563.5 410.8,565.8 408.7,567.4C406.6,569 404.2,568.9 401.9,565.8L384,542.2C381.7,539 382.3,536.7 384.4,535.1C386.5,533.6 388.9,533.7 391.2,536.8L393.5,539.8L407.1,529.5C404,525.3 401.8,522.9 399.5,521.4C392.3,516.7 383.7,518.9 376.3,524.5C363.2,534.4 363.9,545.2 378.6,564.7C394,585.1 401.4,589.5 414.9,579.2C419,576.2 421.2,572.7 422.2,568.1L426.2,569.4L433.2,564.1z M387.3,489L417.8,466.1L409.4,455L392.7,467.6L385.1,457.5L398.2,447.6L389.9,436.5L376.7,446.4L370.1,437.6L386,425.6L377.9,414.9L348.3,437.2L387.3,489z M364.3,506.4L349.1,486.2L351.4,484.4C364,475 365.2,468 356.2,456.1C347.1,444 338.5,444.6 327.5,453L312.1,464.5L351.1,516.3L364.3,506.4z M326,535.2L287,483.5L273.3,493.7L312.3,545.5L326,535.2z M304.4,551.5L282.7,522.7L265.7,535.6L272.9,545.2L276.3,542.7L280.2,547.8C282.5,550.9 282,553.3 279.9,554.8C277.8,556.4 275.4,556.3 273,553.2L255.2,529.5C252.9,526.5 253.4,524.1 255.5,522.6C257.7,520.9 260.1,521.1 262.4,524.2L264.7,527.2L278.4,516.9C275.2,512.7 273,510.3 270.8,508.8C263.5,504.1 254.8,506.4 247.5,511.8C234.4,521.8 235.1,532.6 249.8,552.1C265.1,572.5 272.6,576.9 286.1,566.7C290.2,563.6 292.4,560.1 293.4,555.5L297.4,556.8L304.4,551.5z M258.6,476.4L289,453.4L280.6,442.4L263.8,455L256.3,444.9L269.4,434.9L261.1,423.8L247.9,433.8L241.2,425L257.2,413L249.1,402.3L219.5,424.6L258.6,476.4z M235.5,493.8L220.3,473.6L222.6,471.8C235.1,462.4 236.4,455.4 227.4,443.5C218.3,431.4 209.7,432 198.7,440.3L183.3,451.9L222.3,503.7L235.5,493.8z M197.2,522.6L158.2,470.8L144.5,481.1L183.5,532.9L197.2,522.6z M175.6,538.9L153.9,510.1L136.8,523L144.1,532.6L147.5,530.1L151.4,535.2C153.7,538.3 153.2,540.6 151.1,542.2C149,543.8 146.6,543.7 144.2,540.6L126.4,516.9C124.1,513.8 124.6,511.5 126.8,509.9C128.8,508.3 131.2,508.4 133.6,511.5L135.9,514.6L149.5,504.3C146.4,500.1 144.2,497.7 141.9,496.2C134.7,491.5 126,493.7 118.7,499.3C105.5,509.2 106.3,519.9 121,539.5C136.3,559.9 143.7,564.3 157.3,554C161.4,551 163.6,547.5 164.6,542.9L168.6,544.1L175.6,538.9z M129.7,463.8L160.1,440.9L151.8,429.8L135,442.4L127.4,432.3L140.6,422.3L132.2,411.3L119.1,421.2L112.4,412.4L128.4,400.4L120.3,389.7L90.7,412L129.7,463.8z M106.7,481.1L91.4,461L93.8,459.2C106.3,449.7 107.6,442.8 98.5,430.9C89.5,418.8 80.9,419.4 69.8,427.7L54.5,439.3L93.5,491.1L106.7,481.1z M68.4,510L29.4,458.2L15.7,468.5L54.7,520.3L68.4,510z M78.1,393L91.8,382.7L52.8,330.9L39.1,341.2L78.1,393z M75.2,286.8C79.3,283.7 81.5,280.3 82.5,275.6L86.6,276.9L93.6,271.6L71.9,242.9L54.8,255.8L62.1,265.4L65.5,262.8L69.4,268C71.7,271.1 71.1,273.4 69,275C66.9,276.6 64.5,276.4 62.2,273.4L44.4,249.7C42,246.6 42.6,244.3 44.7,242.7C46.8,241.1 49.2,241.2 51.5,244.3L53.8,247.3L67.5,237C64.3,232.9 62.1,230.5 59.9,229C52.6,224.3 44,226.5 36.6,232C23.5,241.9 24.2,252.7 38.9,272.2C54.3,292.6 61.7,297 75.2,286.8M62.5,213.9L101.5,265.7L115.1,255.4L76.1,203.6L62.5,213.9z M98.7,159.5C102.7,156.4 104.9,152.9 105.9,148.3L110,149.6L116.9,144.3L95.2,115.6L78.2,128.4L85.4,138.1L88.9,135.5L92.7,140.6C95.1,143.7 94.5,146.1 92.4,147.7C90.3,149.2 87.9,149.1 85.6,146L67.8,122.4C65.4,119.3 66,117 68.1,115.4C70.2,113.8 72.6,113.9 74.9,117L77.2,120L90.9,109.7C87.7,105.5 85.5,103.1 83.3,101.7C76,96.9 67.4,99.2 60,104.7C46.9,114.6 47.6,125.4 62.3,144.9C77.7,165.3 85.1,169.7 98.7,159.5M85.9,86.6L124.9,138.3L138.5,128L99.6,76.3L85.9,86.6z M124.6,57.4L163.6,109.1L176.8,99.2L161.6,79L163.9,77.3C176.5,67.8 177.7,60.9 168.7,48.9C159.6,36.9 151.1,37.4 140,45.8L124.6,57.4z M179,156.6L165.8,166.5L159.2,157.7L175.1,145.7L167.1,135L137.5,157.3L176.5,209.1L206.9,186.2L198.6,175.1L181.8,187.8L174.2,177.7L187.4,167.7L179,156.6z M191.1,157.5C206.5,177.9 213.9,182.3 227.5,172.1C231.5,169 233.7,165.5 234.8,160.9L238.8,162.2L245.8,156.9L224.1,128.2L207,141L214.3,150.7L217.7,148.1L221.6,153.3C223.9,156.3 223.3,158.7 221.3,160.3C219.1,161.8 216.7,161.7 214.4,158.6L196.6,135C194.2,131.9 194.8,129.6 196.9,128C199,126.4 201.4,126.5 203.7,129.6L206,132.6L219.7,122.3C216.5,118.2 214.3,115.7 212.1,114.3C204.8,109.6 196.2,111.8 188.9,117.3C175.7,127.2 176.4,138 191.1,157.5M214.7,99.2L253.7,150.9L267.4,140.7L228.4,88.9L214.7,99.2z M253.4,70L292.4,121.7L305.6,111.8L290.4,91.6L292.7,89.9C305.3,80.4 306.6,73.5 297.5,61.5C288.4,49.5 279.9,50.1 268.8,58.4L253.4,70z M289.7,42.7L328.7,94.4L359.1,71.5L350.7,60.4L334,73L326.4,62.9L339.6,53L331.2,41.9L318,51.8L311.4,43L327.3,31L319.3,20.3L289.7,42.7z M357.2,101.5L343.5,111.8L382.5,163.6L396.2,153.3L357.2,101.5z M382.3,82.6L421.3,134.4L434.5,124.4L419.2,104.3L421.6,102.5C434.1,93 435.4,86.1 426.4,74.1C417.3,62.1 408.7,62.7 397.7,71L382.3,82.6z M418.5,55.3L457.5,107L487.9,84.1L479.5,73L462.8,85.6L455.2,75.6L468.4,65.6L460.1,54.5L446.9,64.4L440.2,55.7L456.2,43.6L448.1,33L418.5,55.3z M486,114.1L472.3,124.4L511.4,176.2L525,165.9L486,114.1z M511.1,95.2L550.1,147L563.3,137L548.1,116.8L550.4,115.1C562.9,105.6 564.2,98.7 555.2,86.7C546.1,74.7 537.5,75.3 526.5,83.6L511.1,95.2z M503.1,210.9L487.7,222.5L526.7,274.3L539.9,264.4L524.7,244.2L527.1,242.4C539.6,233 540.8,226 531.8,214.1C522.7,202 514.1,202.6 503.1,210.9M503.3,401.6L516.5,391.7L501.3,371.5L503.6,369.8C516.2,360.3 517.4,353.4 508.4,341.4C499.4,329.3 490.7,329.9 479.7,338.3L464.3,349.8L503.3,401.6z M464.6,430.8L478.2,420.5L439.2,368.8L425.6,379L464.6,430.8z M402,437.4C417.4,457.8 424.8,462.2 438.3,452C442.4,448.9 444.6,445.4 445.6,440.8L449.6,442.1L456.6,436.8L434.9,408L417.9,420.9L425.1,430.6L428.5,428L432.4,433.1C434.8,436.2 434.2,438.6 432.1,440.1C430,441.7 427.6,441.6 425.3,438.5L407.5,414.9C405.1,411.8 405.7,409.5 407.8,407.9C409.9,406.3 412.3,406.4 414.6,409.5L416.9,412.5L430.5,402.2C427.4,398 425.2,395.6 422.9,394.1C415.7,389.4 407,391.7 399.7,397.1C386.6,407.1 387.3,417.9 402,437.4M410.8,361.7L441.2,338.8L432.8,327.7L416.1,340.3L408.4,330.2L421.6,320.3L413.2,309.2L400.1,319.1L393.5,310.3L409.4,298.3L401.3,287.6L371.8,309.9L410.8,361.7z M374.5,389L387.7,379.1L372.5,358.9L374.8,357.1C387.3,347.7 388.6,340.7 379.6,328.8C370.5,316.7 361.9,317.3 350.9,325.6L335.5,337.2L374.5,389z M335.8,418.2L349.4,407.9L310.4,356.1L296.8,366.4L335.8,418.2z M273.2,424.8C288.5,445.2 295.9,449.5 309.5,439.4C313.6,436.3 315.8,432.8 316.8,428.2L320.8,429.5L327.8,424.2L306.1,395.4L289.1,408.3L296.3,418L299.8,415.3L303.6,420.5C305.9,423.6 305.4,425.9 303.3,427.5C301.2,429.1 298.8,429 296.5,425.9L278.6,402.2C276.3,399.1 276.9,396.8 279,395.2C281.1,393.6 283.5,393.8 285.8,396.9L288.1,399.9L301.7,389.6C298.6,385.4 296.4,383 294.1,381.5C286.9,376.8 278.2,379 270.9,384.5C257.8,394.5 258.4,405.2 273.2,424.8M281.9,349.1L312.3,326.1L304,315L287.2,327.7L279.6,317.6L292.8,307.6L284.4,296.5L271.2,306.5L264.6,297.6L280.5,285.7L272.5,275L242.9,297.3L281.9,349.1z M245.7,376.4L258.9,366.4L243.6,346.3L246,344.5C258.5,335 259.8,328.1 250.8,316.1C241.7,304.1 233.1,304.7 222.1,313L206.7,324.6L245.7,376.4z M206.9,405.6L220.6,395.3L181.6,343.5L167.9,353.8L206.9,405.6z M144.4,412.2C159.8,432.6 167.1,437 180.7,426.7C184.7,423.7 187,420.2 188,415.6L192,416.8L199,411.6L177.3,382.8L160.2,395.7L167.5,405.3L170.9,402.8L174.8,407.9C177.1,411 176.6,413.3 174.5,414.9C172.3,416.5 170,416.4 167.6,413.3L149.8,389.6C147.5,386.5 148,384.2 150.1,382.6C152.3,381 154.6,381.1 157,384.2L159.3,387.3L172.9,377C169.7,372.8 167.5,370.4 165.3,368.9C158.1,364.2 149.4,366.4 142.1,372C128.9,381.9 129.6,392.6 144.4,412.2M188.7,241.6C181.4,236.9 172.8,239.1 165.5,244.6C152.3,254.6 153,265.3 167.7,284.8C183.1,305.3 190.5,309.6 204.1,299.4C208.2,296.4 210.3,292.8 211.4,288.3L215.4,289.5L222.4,284.3L200.7,255.5L183.6,268.3L190.9,278L194.3,275.4L198.2,280.6C200.5,283.7 200,286 197.9,287.6C195.8,289.2 193.4,289.1 191,286L173.2,262.3C170.8,259.2 171.4,256.9 173.5,255.3C175.6,253.7 178,253.8 180.4,256.9L182.6,259.9L196.3,249.7C193.1,245.5 190.9,243.1 188.7,241.6M205,216.2L191.3,226.5L230.3,278.3L244,268L205,216.2z M245.4,185.7L230.1,197.3L269.1,249.1L282.2,239.1L267,219L269.4,217.2C281.9,207.7 283.2,200.8 274.2,188.8C265.1,176.8 256.5,177.4 245.4,185.7M359.2,290.9L372.8,280.6L333.8,228.8L320.1,239.1L359.2,290.9z M302.4,267.9C304.4,266.3 306.9,266.4 309.2,269.5L311.5,272.6L325.1,262.3C322,258.1 319.8,255.6 317.5,254.2C310.3,249.5 301.6,251.7 294.3,257.2C281.1,267.1 281.8,277.9 296.6,297.4C311.9,317.9 319.3,322.2 332.9,312C337,308.9 339.2,305.5 340.2,300.9L344.2,302.2L351.2,296.9L329.5,268.1L312.4,281L319.7,290.6L323.2,288L327,293.2C329.3,296.3 328.8,298.6 326.7,300.2C324.6,301.8 322.2,301.7 319.8,298.6L302,274.9C299.7,271.8 300.2,269.5 302.4,267.9M374.2,198.3L358.9,209.9L397.9,261.7L411.1,251.7L395.8,231.6L398.2,229.8C410.7,220.4 412,213.4 403,201.4C393.9,189.4 385.3,190 374.2,198.3M488,303.5L501.6,293.2L462.6,241.4L448.9,251.7L488,303.5z M431.1,280.5C433.3,278.9 435.7,279.1 438,282.1L440.3,285.2L453.9,274.9C450.8,270.7 448.6,268.3 446.3,266.8C439.1,262.1 430.4,264.3 423.1,269.8C409.9,279.8 410.7,290.5 425.4,310.1C440.8,330.5 448.1,334.9 461.7,324.6C465.8,321.6 468,318.1 469,313.5L473,314.7L480,309.5L458.4,280.7L441.2,293.6L448.6,303.2L451.9,300.7L455.8,305.8C458.2,308.9 457.6,311.2 455.5,312.8C453.4,314.4 451,314.3 448.7,311.2L430.8,287.5C428.5,284.4 429,282.1 431.1,280.5M454.5,153.2C456.6,151.6 459,151.7 461.4,154.8L463.7,157.9L477.3,147.5C474.2,143.4 472,141 469.7,139.5C462.5,134.8 453.8,137 446.5,142.5C433.3,152.4 434,163.2 448.8,182.7C464.1,203.2 471.5,207.5 485.1,197.3C489.2,194.2 491.4,190.8 492.4,186.2L496.4,187.4L503.4,182.2L481.7,153.4L464.7,166.2L471.9,175.9L475.3,173.4L479.2,178.5C481.6,181.6 481,183.9 478.9,185.5C476.8,187.1 474.4,187 472.1,183.9L454.2,160.2C451.9,157.1 452.4,154.8 454.5,153.2M416.8,183L432.8,171L424.7,160.3L395.1,182.6L434.1,234.4L464.6,211.5L456.2,200.3L439.4,213L431.8,202.9L445,193L436.6,181.8L423.5,191.8L416.8,183z M325.7,140.6C327.8,139 330.2,139.1 332.6,142.2L334.8,145.2L348.5,134.9C345.4,130.8 343.2,128.3 340.9,126.9C333.7,122.2 325,124.4 317.7,129.9C304.5,139.8 305.2,150.6 320,170.2C335.3,190.5 342.7,195 356.3,184.7C360.3,181.6 362.6,178.2 363.6,173.6L367.6,174.8L374.6,169.6L352.9,140.8L335.8,153.6L343.1,163.3L346.5,160.7L350.4,165.8C352.7,169 352.2,171.3 350.1,172.9C348,174.5 345.6,174.3 343.2,171.3L325.4,147.6C323.1,144.5 323.6,142.2 325.7,140.6M288,170.4L303.9,158.3L295.9,147.7L266.3,170L305.3,221.7L335.7,198.8L327.3,187.8L310.6,200.4L303,190.3L316.2,180.3L307.8,169.2L294.6,179.2L288,170.4z M138.2,206.3L140.6,204.5C153.1,195.1 154.4,188.2 145.3,176.2C136.3,164.2 127.7,164.7 116.6,173.1L101.2,184.7L140.3,236.5L153.4,226.5L138.2,206.3z M153.1,336.5L183.5,313.5L175.2,302.4L158.4,315L150.8,305L164,295L155.6,283.9L142.4,293.9L135.8,285L151.8,273L143.7,262.4L114.1,284.7L153.1,336.5z M114.8,333.7L117.2,331.9C129.7,322.4 131,315.5 121.9,303.5C112.9,291.5 104.3,292.1 93.3,300.4L77.9,312L116.9,363.8L130,353.9L114.8,333.7z M542.1,321.8L528.9,331.7L522.2,322.9L538.2,310.9L530.2,300.2L500.6,322.5L539.6,374.3L570,351.4L561.6,340.3L544.8,352.9L537.3,342.8L550.4,332.9L542.1,321.8z" style="fill:#F66041"/><path d="M211.2,514.8L117.6,514.8L117.6,189.6L56.4,189.6L56.4,134.4C98.4,135 126,117.6 141,76.8L211.2,76.8L211.2,514.8z" style="fill:#FFF"/><path d="M418.2,156C398.4,156 393.6,165.6 393.6,207C393.6,248.4 398.4,258 418.2,258C438,258 442.8,248.4 442.8,207C442.8,165.6 438,156 418.2,156M418.2,328.8C396.6,328.8 391.2,343.8 391.2,384.6C391.2,426 396.6,440.4 418.2,440.4C439.8,440.4 445.2,426 445.2,384.6C445.2,343.8 439.8,328.8 418.2,328.8M297.6,390C297.6,346.8 307.2,316.2 342.6,289.2C313.2,259.8 302.4,234 302.4,194.4C302.4,125.4 346.2,76.8 418.2,76.8C490.2,76.8 534,125.4 534,194.4C534,234 523.2,259.8 493.8,289.2C529.2,316.2 538.8,346.8 538.8,390C538.8,468.6 514.2,522 418.2,522C322.2,522 297.6,468.6 297.6,390" style="fill:#FFF"/><path style="fill:#000" d="M588,588L12,588L12,12L588,12L588,588z M0,600L600,600L600,0L0,0L0,600z"/><path d="M576,58.5L570.4,58.5L570.4,31.3L570.2,31.3L560.7,58.5L556.1,58.5L547,31.3L546.9,31.3L546.9,58.5L541.3,58.5L541.3,24L550.2,24L558.8,49.7L558.9,49.7L567.3,24L576,24L576,58.5z M537.3,24L537.3,28.5L527.8,28.5L527.8,58.5L522.2,58.5L522.2,28.5L512.8,28.5L512.8,24L537.3,24z" style="fill:#000"/></svg>